<svg viewBox="0 0 12.79 3.175" xmlns="http://www.w3.org/2000/svg" xmlns:xlink="http://www.w3.org/1999/xlink"><defs><linearGradient id="b" x1="227" x2="234" y1="180.5" y2="168.5" gradientTransform="translate(7.144 -.794) scale(.2646)" gradientUnits="userSpaceOnUse" xlink:href="#a"/><linearGradient id="a"><stop stop-color="#6f15af" offset="0"/><stop stop-color="#19a9d2" offset="1"/></linearGradient><linearGradient id="c" x1="73.72" x2="74.25" y1="46.99" y2="44.08" gradientTransform="translate(.096 -.02)" gradientUnits="userSpaceOnUse" xlink:href="#a"/></defs><path d="M67.2 43.79a.264.264 0 100 .53h.265a.264.264 0 110 .528h-.53a.264.264 0 100 .53h.53c.004 0 .007-.003.011-.003a.926.926 0 00.003.002h.25a.264.264 0 110 .53h-1.058a.264.264 0 100 .529h.267c.145 0 .262.117.262.263v.004a.262.262 0 01-.262.262H68.119a.926.926 0 00.054 0 .926.926 0 00.88-.926l-.02-.185a.926.926 0 00-.26-.476.926.926 0 00.28-.662l-.02-.185a.926.926 0 00-.93-.74h-.27zm-1.06 1.058a.262.262 0 00-.263.263v.004c0 .145.118.262.263.262h.004a.262.262 0 00.263-.262v-.004a.262.262 0 00-.263-.263zm.427 1.608z" fill="url(#b)" transform="translate(-65.88 -43.79)"/><g fill="url(#c)" stroke-width=".265" style="font-feature-settings:normal;font-variant-caps:normal;font-variant-ligatures:normal;font-variant-numeric:normal" aria-label="ZList" transform="translate(-65.88 -43.79)"><path d="M70.05 46.6h1.722v.325h-2.191v-.298l1.65-2.385h-1.623v-.327h2.098v.292zM72.69 46.6h1.426v.325h-1.825v-3.01h.399zM74.93 46.93h-.382v-2.237h.382zm-.413-2.83q0-.093.055-.157.058-.064.17-.064.112 0 .17.064.057.064.057.157t-.058.155-.17.062q-.11 0-.169-.062-.055-.062-.055-.155zM76.84 46.33q0-.155-.118-.24-.116-.087-.407-.149-.29-.062-.461-.148-.17-.087-.252-.207-.08-.12-.08-.285 0-.275.23-.466.234-.19.596-.19.38 0 .616.197.238.196.238.502h-.385q0-.157-.134-.27-.133-.115-.335-.115-.209 0-.327.091-.118.091-.118.238 0 .139.11.209t.395.134q.287.064.465.153.178.09.262.215.087.124.087.304 0 .3-.24.482-.24.18-.622.18-.268 0-.475-.095-.207-.096-.325-.265-.115-.172-.115-.37h.382q.01.192.153.306.145.111.38.111.217 0 .348-.086.132-.09.132-.236zM78.24 44.15v.542h.417v.295h-.417v1.387q0 .135.056.203.056.066.19.066.066 0 .182-.025v.31q-.151.042-.294.042-.256 0-.386-.155t-.13-.44v-1.388h-.407v-.295h.407v-.542z"/></g></svg>