<svg width="1mm" height="1mm" viewBox="0 0 1 1" xmlns="http://www.w3.org/2000/svg"><defs><linearGradient id="a" x2="1" y1="1"><stop stop-color="#3c8cdd" offset="0"/><stop stop-color="#52c7e0" offset="1"/></linearGradient></defs><path d="M.465 0C.456 0 .45.006.45.014V.47A.166.19 0 01.473.465.166.19 0 01.506.463a.166.19 0 01.04.008V.014C.546.006.54 0 .531 0H.465zM.13.09C.098.09.07.114.07.143v.805C.071.977.097 1 .13 1h.094C.256 1 .282.977.282.948V.944C.282.937.276.931.267.931h-.01C.235.93.217.915.217.895V.316c0-.02.018-.035.04-.035h.005a.02.018 0 00.02-.019v-.12C.282.115.256.09.224.09zm.646 0C.744.09.718.114.718.143v.119a.02.018 0 00.02.018h.005c.022 0 .04.016.04.036v.579c0 .02-.018.036-.04.036h-.01a.014.014 0 00-.015.013v.004C.718.977.744 1 .776 1H.87C.902 1 .93.977.93.948V.143C.929.113.903.09.87.09zM.3.341C.277.341.258.358.258.38v.478c0 .021.019.038.042.038h.395C.72.895.737.878.737.857V.38C.737.36.72.342.695.341h-.11C.578.341.57.347.57.355v.124c.06.026.097.08.098.14v.194C.668.821.66.827.652.827H.348C.34.827.333.821.333.813V.62c0-.058.036-.111.092-.138V.355A.015.015 0 00.41.34zm.2.156a.138.128 0 00-.138.127v.158c0 .007.007.014.015.014h.246C.632.796.64.79.64.782V.624A.138.128 0 00.5.496z" fill="url(#a)"/></svg>
