<svg width="1mm" height="1mm" viewBox="0 0 1 1" xmlns="http://www.w3.org/2000/svg"><defs><linearGradient id="a" x1=".075" x2="1.003" y1=".927" gradientTransform="matrix(.69552 0 0 .80875 .125 .125)" gradientUnits="userSpaceOnUse"><stop stop-color="#3c8cdd" offset="0"/><stop stop-color="#52c7e0" offset="1"/></linearGradient></defs><rect width="1" height="1" ry=".15" fill="#fff"/><path d="M.474.125c-.007 0-.011.004-.011.01v.343A.124.142 0 01.48.474.124.142 0 01.505.472a.124.142 0 01.03.006V.136C.535.13.53.125.523.125zM.223.193C.199.193.178.21.178.233v.603c0 .022.02.039.045.039h.07C.317.875.337.858.337.836V.833c0-.005-.005-.01-.012-.01H.318C.3.823.288.811.288.796V.362C.288.347.3.336.318.336h.004A.015.013 0 00.337.32V.23C.337.21.317.192.293.192zm.484 0C.683.193.664.21.664.233V.32a.015.013 0 00.015.014h.003c.017 0 .03.012.03.027v.434C.712.811.7.823.682.823H.675a.01.01 0 00-.011.01v.003c0 .022.019.039.043.039h.07C.803.875.824.858.824.836V.232a.045.045 0 00-.046-.04zM.35.38a.031.031 0 00-.031.03v.359c0 .015.014.028.031.028h.296c.019 0 .032-.014.032-.03V.41C.678.395.665.381.646.38H.564C.559.38.553.386.553.392v.093c.045.02.072.06.073.105v.146c0 .006-.006.01-.012.01H.386C.38.745.375.741.375.735V.59c0-.044.027-.083.069-.104V.391A.011.011 0 00.433.38zM.5.498a.103.096 0 00-.103.095v.118c0 .006.005.011.01.011h.185C.6.722.605.718.605.712V.593A.103.096 0 00.5.497z" fill="url(#a)" paint-order="stroke fill markers"/></svg>